<?xml version="1.0" encoding="UTF-8"?>
<svg id="Capa_2" data-name="Capa 2" xmlns="http://www.w3.org/2000/svg" viewBox="0 0 255.96 254.04">
  <g id="Capa_1-2" data-name="Capa 1">
    <g>
      <polygon points="233.3 97.91 246.23 92.86 232.06 93.38 230.94 90.26 242.37 82.5 229.29 86.37 228.02 82.69 245.67 77.75 247.54 82.96 236.85 90.29 249.87 89.65 251.64 94.8 234.71 101.78 233.3 97.91"/>
      <polygon points="113.66 19.5 108.13 1.52 112.62 1.18 115.93 14.46 117.78 .86 122.25 .56 125.52 13.64 127.17 .26 131.46 0 127.92 18.57 123.37 18.84 120.06 5.94 119.8 8.81 118.24 19.19 113.66 19.5"/>
      <polygon points="251.91 159.57 251.15 163.38 233.25 159.4 234.17 155.12 248.49 151.12 235.72 148.39 236.56 144.58 254.42 148.56 253.38 153.32 247.38 155.16 239.8 157.09 251.91 159.57"/>
      <polygon points=".48 139.93 .3 135.08 5.13 132.11 12.37 128.1 .11 128.66 0 124.77 18.28 124.19 18.44 128.59 5.59 135.98 18.67 135.5 18.74 139.36 .48 139.93"/>
      <path d="M192.54,35.57c-4.96,1.61-9.74-1.58-13.91-4.68l9.39-15.39c2.81,1.27,5.6,2.71,7.94,4.76,3.09,2.7,3.87,6.86,1.79,10.34-1.1,2.23-2.81,3.95-5.21,4.97ZM193.99,23.36c-.89-1.45-2.38-2.45-3.96-3.04l-6.17,10.11c1.47,1.13,3.14,2,4.99,1.9,3.67-.21,7.18-5.62,5.13-8.97Z"/>
      <path d="M249.96,142.93c-2.88.79-5.87.5-8.42-.77-3.13-1.56-4.61-4.68-4.5-8.11.12-3.78,2.38-6.9,6.06-7.9,2.55-.69,5.25-.53,7.69.51,3.71,1.59,5.61,5.31,5.08,9.28-.44,3.33-2.49,6.06-5.91,6.99ZM250.5,138.07c1.46-.77,2.17-2.2,2.11-3.58-.16-3.78-5.78-5.3-9.72-3.69-1.52.62-2.39,2-2.48,3.41-.1,1.54.68,2.94,2.16,3.71,2.4,1.26,5.42,1.47,7.94.15Z"/>
      <path d="M142.05,19.98c-4.11-.17-7.29-2.71-8.08-6.62-.53-2.62-.15-5.34,1.08-7.72,1.79-3.43,5.41-5.03,9.16-4.43,3.5.56,6.21,2.88,6.96,6.41.57,2.67.17,5.46-1.06,7.9-1.54,3.04-4.53,4.61-8.07,4.46ZM145.65,14.71c1.47-2.38,1.8-5.3.79-7.79-.56-1.39-1.84-2.29-3.12-2.45-1.39-.17-2.79.47-3.66,1.73-1.52,2.2-1.9,5.16-1.07,7.71.51,1.55,1.9,2.52,3.23,2.69,1.51.2,2.95-.46,3.84-1.88Z"/>
      <polygon points="236.01 197.05 219.97 188.15 222.01 184.47 228.66 188.17 231.95 182.33 225.27 178.59 227.34 174.92 243.36 183.82 241.29 187.5 235.17 184.11 231.9 189.97 238.04 193.37 236.01 197.05"/>
      <polygon points="218.49 66.02 215.89 62.85 221.89 58.08 217.66 52.77 211.67 57.51 209.12 54.24 223.42 42.91 225.96 46.17 220.48 50.52 224.7 55.84 230.21 51.49 232.77 54.7 218.49 66.02"/>
      <path d="M15.36,97.82l-3.16-.84,1.71-6.65,9.35,2.44c.25,2.91-.22,5.89-1.34,8.62-1.72,4.19-5.77,6.07-10.11,5.11s-7.45-4.25-7.51-8.81c-.04-3.05.74-5.88,2.56-8.58l3.04,1.66c-1.09,1.8-1.8,3.39-2.03,5.29-.34,2.79,1.36,5.04,3.94,5.86,2.11.67,4.38.57,6.03-1.03,1.27-1.23,1.78-2.96,1.93-4.8l-3.66-1.01-.76,2.74Z"/>
      <path d="M23.97,81.47c-1-.13-2.13-.22-2.81.52-.44.48-.87,1.44-1.06,2.2l6.51,2.78-1.67,3.84-16.63-7.14c1.6-5.15,3.73-11.81,8.92-10.44,2.23.59,3.74,2.45,3.69,4.95,1.05-.65,2.27-1.02,3.5-.85l5.97.81-1.68,3.95-4.74-.63ZM17.24,82.96l.89-2.44c.34-.93-.19-2.17-.86-2.68s-1.91-.83-2.67-.28c-1.12.81-1.68,2.21-1.93,3.46l4.57,1.95Z"/>
      <path d="M161.03,23.93v-4.57c-.01-.9.01-2.04-.61-2.69-.52-.55-1.54-.86-2.56-1.14l-1.99,6.89-4.01-1.12,4.97-17.42c5.17.91,12.1,2.15,11.51,7.39-.25,2.21-1.81,4.08-4.43,4.43,1.03,1.2,1.31,2.56,1.29,4.13l-.07,5.22-4.09-1.11ZM161.74,13.2c1.4.01,2.13-1.08,2.35-2.02.45-1.96-1.49-3.03-4.03-3.41l-1.39,4.83c.93.25,2.06.59,3.07.6Z"/>
      <path d="M29.49,70.44l3.32,3.59-2.3,3.74-12.64-14.39,2.91-4.67,18.52,4.81-2.34,3.85-4.7-1.27-2.77,4.34ZM29.13,64.96l-6.94-1.99,4.97,5.32,1.97-3.33Z"/>
      <path d="M225.17,77.89l3.42-3.54-2.53-4.51-4.7,1.17-2.16-3.79,18.73-4.1,2.69,4.79-13.17,13.89-2.28-3.91ZM231.04,72.23l5.13-5.17-7.02,1.79,1.88,3.37Z"/>
      <path d="M93.25,19.48l.05,4.9-4.15,1.16.2-19.13,5.24-1.55,10.59,15.92-4.3,1.38-2.66-4.12-4.97,1.44ZM96.68,15.13l-3.88-6.06.16,7.22,3.72-1.16Z"/>
      <path d="M22.51,157.95l1.04,4.26-19.11-1.12-1.3-5.33,16.44-9.81,1.11,4.36-4.22,2.5,1.22,5.04,4.84.1ZM14.42,157.91l-.9-3.74-6.51,3.66,7.41.08Z"/>
      <polygon points="128.63 241.48 129.16 253.98 125.79 254.04 125.21 237.05 129.46 236.88 135.84 248.6 135.18 236.67 138.52 236.59 139.11 253.61 135.31 253.76 128.63 241.48"/>
      <path d="M53.39,41.73l1.96,4.46-3.29,2.72-7.26-17.64,4.17-3.46,15.96,10.55-3.47,2.81-4-2.74-4.07,3.31ZM55.01,36.43l-6.17-4.27,3.08,6.81,3.09-2.54Z"/>
      <polygon points="11.43 116.4 15.67 116.9 16.51 109.45 19.94 109.85 18.63 121.46 .42 119.4 1.69 108.18 5.14 108.52 4.32 115.6 8.03 116.02 8.78 109.36 12.19 109.72 11.43 116.4"/>
      <polygon points="35.86 217.1 32.77 213.55 35.61 207.18 29.01 209.14 25.98 205.53 36.04 203.67 39.63 193.54 42.74 197.07 39.89 203.84 46.83 201.84 49.82 205.43 39.41 207.41 35.86 217.1"/>
      <polygon points="27.34 192.73 31.29 188.57 17.41 192.49 15.07 188.69 33.87 184.24 36.46 188.39 24.02 203.04 21.54 199.15 27.34 192.73"/>
      <path d="M249.04,114.97c-4.57.34-6.57-3.23-7.04-7.9l-6.38,1.07-.68-4.1,17.82-3.01c.83,2.78,1.49,5.51,1.5,8.32.01,3.13-2.18,5.48-5.22,5.63ZM248.62,110.87c.88-.07,1.93-.65,2.22-1.66.33-1.18.06-2.49-.34-3.59l-5.31.91c.15,2.67,1.23,4.52,3.43,4.34Z"/>
      <path d="M214.64,214.25c-3.46-3.37-1.62-7.46,1.59-10.58l-4.86-4.3,2.71-3.05,13.48,11.91c-1.58,2.38-3.34,4.64-5.54,6.41s-5.33,1.74-7.38-.39ZM219.98,211.97c1.2-.49,1.96-1.45,2.74-2.53l-4.11-3.67-1.73,2.15c-.73.91-.42,2.31.32,3.17.53.61,1.68,1.33,2.78.88Z"/>
      <path d="M85.32,26.89c-2.24,2.35-5.33,3.4-8.56,3.55l-.69-3.53c3.37.07,7.17-1.48,6.58-3.56-.17-.6-1.08-1.36-1.75-1.36l-4.37.02c-2.1.01-3.94-1.21-4.65-2.86-.81-1.88-.53-3.98.87-5.58,1.93-2.22,4.83-3.27,7.83-3.45l.56,3.48c-2.87,0-6.13,1.41-5.6,3.27.16.55,1.03,1.19,1.65,1.18l4.2-.06c2.21-.03,4.08,1.13,4.88,2.86.92,2.01.71,4.31-.95,6.05Z"/>
      <path d="M244.89,178.69l-2.87-2.1c2.12-2.05,3.38-5.45,1.63-6.31-.53-.26-1.58-.01-2.04.47l-2.81,2.91c-1.62,1.68-3.9,2.13-5.94,1.24s-3.27-2.9-3.15-5.31c.15-3.04,1.44-5.82,3.62-8.03l2.95,2.05c-2.41,2.3-4.16,6.09-2.09,7.19.62.33,1.74.1,2.3-.48l2.8-2.89c1.52-1.57,3.74-2,5.64-1.17s3.14,2.72,3.1,5c-.04,2.77-1.2,5.23-3.14,7.44Z"/>
      <path d="M42.62,58.27l-2.05-2.95c3.12-1.29,6.25-4.14,4.51-6.05-.49-.54-1.53-.67-2.34-.31l-3.76,1.66c-1.92.85-4.06.38-5.42-.97s-1.91-3.4-1.22-5.38c.95-2.73,3.04-4.73,5.76-6.12l1.87,2.93c-2.73,1.15-5.2,3.78-3.77,5.35.37.4,1.42.55,2.04.28l3.8-1.68c2.05-.91,4.28-.47,5.75.96s1.97,3.63,1.25,5.75c-1.21,2.86-3.29,4.9-6.39,6.52Z"/>
      <path d="M151.2,247.23l-4.55.83-.35,4.53-3.69.6,1.8-17.62,4.7-.87,7.94,15.87-3.86.75-1.98-4.1ZM150.12,244.45l-2.97-6.32-.48,6.99,3.45-.67Z"/>
      <path d="M117.55,249.08l-4.57-.52-1.66,4.25-3.71-.43,6.68-16.38,4.77.47,3.13,17.45-3.88-.34-.75-4.49ZM117.3,246.13l-1.07-6.92-2.41,6.55,3.48.38Z"/>
      <path d="M206.43,39.7c-1.82,2.11-2.21,4.85-.5,7.04,1,1.29,2.31,2.19,3.85,3.02l-1.72,2.76c-2.39-1.05-4.33-2.7-5.83-4.79-2.44-3.42-1.92-7.66.82-10.74,2.38-2.68,5.79-4.25,9.37-3.28,3.31.89,5.87,3.15,7.57,6.26l-2.84,1.88c-1.01-1.82-2.26-3.33-4.09-4.13-2.44-1.07-4.9-.02-6.63,1.99Z"/>
      <polygon points="81.11 236.74 75.8 234.08 74.01 237.7 79.93 240.66 78.51 243.49 69.3 238.86 76.99 223.67 85.83 228.1 84.4 230.92 78.82 228.11 77.21 231.27 82.52 233.93 81.11 236.74"/>
      <path d="M177.08,232.88c.8-1.88,2.4-2.89,4.07-3.08,1.93-.22,3.51.77,4.6,2.34,1.85,2.67,1.45,6.18-1.03,8.07s-5.96,1.72-8.16-.81-3.27-5.75-2.64-9,2.88-5.22,5.73-6.53l1.33,2.59c-2.85,1.54-4.62,3.42-3.9,6.42ZM183.26,237.45c.61-1.7-.35-3.59-1.79-4.23-1.2-.53-2.33.11-2.85,1.16-.8,1.6.91,3.82,2.54,4.16.71.15,1.81-.29,2.1-1.09Z"/>
      <path d="M106.66,244.33c-2.12,1.18-4.35.67-6.42.11l-1.36,5.89-3.51-.8,3.79-16.42c3.73.39,8.75.99,9.94,4.3.89,2.48-.02,5.56-2.44,6.9ZM103.92,241.87c1.76-.44,2.48-2.68,1.48-4.02-.73-.98-2.15-1.25-3.34-1.28l-1.14,4.94c.9.32,1.99.61,3,.35Z"/>
      <path d="M88.86,247.05c-2.88.04-5.29-1.21-7.26-3.05l1.79-2.77c1.98,2.18,5.36,3.62,6.41,1.75.29-.52.14-1.68-.33-2.15l-2.47-2.44c-1.51-1.49-1.97-3.65-1.1-5.49s2.59-2.94,4.75-2.84c2.33.11,4.47,1.08,6.12,2.71l-1.77,2.6c-2.1-2.07-5.11-2.81-5.67-1.26-.2.55.03,1.54.46,1.96l2.47,2.44c1.5,1.49,1.91,3.52,1.17,5.36s-2.25,3.14-4.56,3.18Z"/>
      <polygon points="9.48 176.08 23.23 170.63 20.58 163.9 23.87 162.57 28.1 173.25 11.06 180 9.48 176.08"/>
      <polygon points="178.5 26.98 177.13 30.25 166.57 25.71 173.83 8.86 177.7 10.57 171.85 24.12 178.5 26.98"/>
      <polygon points="76.16 31.61 66.37 37.61 56.82 21.98 60.42 19.75 68.13 32.36 74.32 28.58 76.16 31.61"/>
      <path d="M164.92,248.38l-.95-2.16,3.22-6.86c.79-1.68.82-4.34-.52-5.2-1.56-.99-3.58.21-5.05,2.24l-1.83-2.15c1.48-2.31,4.28-4.1,7.21-3.72,2.76.36,4.38,3.13,4.21,5.84s-1.41,4.6-2.57,7.22l5.38-1.91,1.1,2.94-10.2,3.75Z"/>
      <polygon points="230.56 204.51 215.69 193.86 218.13 190.39 233.04 201.07 230.56 204.51"/>
      <polygon points="255.66 121.98 237.39 123.19 237.12 118.99 255.37 117.79 255.66 121.98"/>
      <polygon points="154.95 240.4 154.73 233.39 157.93 232.32 157.03 239.52 154.95 240.4"/>
      <path d="M130.22,235.52c-.18.33-1.1.36-1.63.31-.17-1.17,0-2.43,1.08-3.08,1.18-.71,3.12,1.13,3.39.68l.52-.87c.21-.35,1.22-.24,1.58-.13.03,1.12-.11,2.23-.86,2.81-.85.66-1.98,0-2.88-.29l-.72-.24c-.15-.05-.34.55-.48.82Z"/>
      <path d="M65.8,228.47c-.62,1.44-2.15,1.86-3.16,1.27-1.31-.77-1.43-2.29-.5-3.44.67-.83,1.8-1.13,2.72-.69.98.47,1.45,1.66.94,2.86Z"/>
      <path d="M195.47,228.1c-.54,1.14-1.68,1.47-2.62,1.17-.8-.25-1.53-1.2-1.65-2-.17-1.14.38-2.15,1.67-2.47.65-.16,1.68.29,2.07.74.56.65.92,1.73.53,2.55Z"/>
      <path d="M108.04,52.69c-.02.15-.04.3-.06.45.41-.05.8-.15,1.19-.31-.38-.04-.75-.09-1.13-.14Z"/>
    </g>
  </g>
</svg>