<?xml version="1.0" encoding="UTF-8"?>
<svg id="Capa_2" data-name="Capa 2" xmlns="http://www.w3.org/2000/svg" viewBox="0 0 179.82 145.37">
  <g id="Capa_1-2" data-name="Capa 1">
    <g>
      <path d="M69.42.97c-.02.15-.04.3-.06.45.41-.05.8-.15,1.19-.31-.38-.04-.75-.09-1.13-.14Z"/>
      <path d="M94.07,107.64c-.2,3.05-2.56,5.07-5.28,4.96s-4.77-2.54-4.75-5.36c.01-1.85.62-3.42,1.96-4.51s3.07-1.57,4.8-.88c2.25.89,3.44,3.26,3.28,5.79Z"/>
      <path d="M61.02,25.21l-.37,16.53c-2.97,1.45-6.05,1.67-9.23.97-1.51-2.4-3.7-4.06-6.5-4.87-3.11-5.54-.23-11.65,3.68-16.5,3.76-4.29,8.04-7.82,12.91-10.89l-.39,9.73c-5.12,1.22-9.38,4.8-10.88,9.73-1.08,3.57.89,6.99,4.48,7.48-2.16-2.07-2.5-4.56-1.49-7.07,1.44-2.84,4.09-4.75,7.78-5.12Z"/>
      <path d="M38.88,68.3c.29-2.74,1.1-5.35.19-8.05l-2.5-3.53c-1.15-1.62-1.25-3.49-.11-5.13,2.91-4.19,8.64-4.51,13.78-4.13,1.28-.67,1.6-2.12,1.41-3.68,3.17.56,6.02.4,9.11-.81-.48,3.58-.12,7.13-.94,10.62-1.1,4.7-5.76,7.69-10.13,8.48l2.78.26c-2.42,2.26-5.15,4-8.27,5.17-1.26.47-2.25.31-3.43-.77l-1.89,1.56ZM46.83,62.12l-1.16-.6c-.23-.12.42-.91.68-1.01,1.57-.59,3.67-1.79,4.56-3.38,2.07-3.7,1.03-6.6-2.46-8.79-3.47-.5-6.94.61-9.24,3.38.74.73,1.64.68,2.85.58-1.6,3.63-2.45,7.21-1.34,11.07,2.15.28,3.45-1.45,6.12-1.25Z"/>
      <path d="M68.08,28.14c1.81,5.11-1.56,10.09-6.24,12.94l.3-16.03c2.59-.65,4.92.66,5.93,3.09Z"/>
      <path d="M160.05,111.47c-1.99,2.28-5.46,2.17-7.2-.29-2-2.82-1.43-7.1,1.46-9.05,1.42-.96,3.09-.68,4.5.04,3.06,1.55,3.65,6.55,1.25,9.3Z"/>
      <path d="M137.41,62.62l-7.61.04c.35-2.16,1.83-3.8,3.65-3.76,1.99.04,3.9,1.01,3.96,3.72Z"/>
      <g>
        <path d="M179.73,93.9c-.02-2.62-1.5-4.66-2.82-6.71l-.28-.44c-1.23-.64-2.38-1.44-3.73-1.8-2.61-.68-5.4-.04-8,.4l-1.97,1.02c-2.79-1.79-5.97-2.19-9.3-1.97l-.98-.2c-.18-.04.43-.61.48-.68,2.15-1.94,3.31-4.45,3.06-7.37.11-1.97-.27-3.78-1.26-5.51l.94-1.85c1.61-6.05.1-12.27-4.18-16.82-4.35-5.45-10.78-8.23-17.83-7.96-.55-5.11-1.88-9.69-3.78-14.33l-.07-5.8c.03-2.06-.59-3.9-1.69-5.48-1.49-1.03-3.03-2-4.62-2.93-.46-.27-.93-.54-1.39-.81-2.21-1.28-4.42-2.55-6.6-3.86h0c-1.73-1.04-3.45-2.12-5.12-3.26h0c-.99-.68-1.98-1.38-2.94-2.11l-.39-.22.39.22c-.14-.11-.28-.22-.42-.32-4.99-2.47-10.22-4.27-15.83-5.08-1.09.02-2.18.04-3.27.07-.09,0-.17,0-.26,0h0c-1.22.04-2.45.08-3.67.12h0c-.16,0-.32.01-.48.02h0c-3.21.11-6.42.22-9.62.21-.54.09-1.08.19-1.63.29.08-.1.15-.2.23-.3-1.92-.03-3.83-.11-5.74-.26-1.67.26-3.33.52-5,.7,0,0,0,0,0,0l-5.23,2.18c-3.84,1.6-7.36,3.64-10.62,6.2-2.39,1.87-4.01,4.18-5.41,6.82-1.65,3.08-5.69,9.56-7.97,8.87-.52-.16-1.13-.49-1.24-.81-.1-.32-.01-.96.07-1.6-.33-.02-1.48.52-1.61,1.07-.46,1.96,1.19,3.66,3.17,3.58,2.32-.1,4.11-1,6.19-2.31-.95,3.13-3.52,4.72-6.48,4.33-2.12-.28-3.66-1.16-4.48-3.21-.65-1.64-.46-3.29.66-4.75-2.4.29-3.62,2.07-4.1,3.66-.62,2.07-.21,3.97,1.09,5.52,2.57,3.07,6.3,4.19,10.44,3.58l-1.51,5.6-5.69,5.69c-3.1,3.1-11.34,5.96-13.93,2.93-.69-.81-1.09-2.2-.53-3.22.87-1.57,3.5-1.88,4.61-.39.24.32-.34,1.44-.73,1.35l-1.65-.36c-.35,1.12.63,2.14,1.98,2.34,2.18.31,4.08-1.05,4.78-3.07.65-1.87,0-4.23-1.94-5.33-3.72-2.1-8.27-1.16-11.15,1.99-1.84,2.02-3.16,4.51-3.31,7.38-.14,2.74,1.18,5.85,3.37,7.49,2.55,1.9,5.67,1.8,8.85,1.81-2.97,1.89-6.88,2.46-9.98.54-2.18-1.35-3.59-3.55-4.59-5.88-1.82-4.24-1.18-8.96,2.16-12.56-1.9-.15-3.58,1.03-4.73,2.58C-.01,46.12-.51,50.28.48,54.17c.79,3.1,2.05,5.91,4.38,8.1,5.35,5.04,15.1,2.56,22.13.7,1.23.73,1.16,2.74.16,3.79-2.18,2.3-5.82,2.84-6.61,1.37-.3-.56-.33-1.55-.36-2.53-.69,0-1.77.61-2.07,1.27-.35.8-.21,1.99.41,2.66,1.05,1.12,2.79,1.86,4.37,1.74l3.84-.28-4.83,5.33c-1.04,1.15-2.11,2.87-2.17,4.44-.09,2.51,1.73,4.11,3.83,5.44l-4.11,1.28c-2.56.8-4.26,2.77-4.46,5.52-.15,1.95.66,3.64,2.33,4.86-1.94,1.67-2.34,3.87-1.89,6.12.61,3.05,3.08,4.8,6.22,4.21,1.06-.2,2.81-.05,3.55.8v5.23c.02,2.04.22,4.49,1.36,6.19,1.95,2.91,5.23,4.36,8.59,5.05,3.98.82,7.85,0,11.61-1.28.2-.12.43-.19.67-.19.12,0,.25-.01.37-.02.02,0,.04,0,.05,0,.03,0,.06,0,.09-.01.03,0,.07,0,.1-.01l-.06-.22,5.77-1.92c3.02-1.01,6.5-1.78,7.55.51l5.12,11.15c2.26,4.91,5.9,9.01,11.26,10.5,6.28,1.74,13.01,1.99,19.3.11,7.35-2.19,12.38-8.46,14.12-15.71,3.05,1.34,5.88,1.62,8.79,1.07,5.87-1.1,9.47-6.73,8.98-12.6l.05-6.68c0-.44.29-1.56.68-1.73l3.22-1.39c.25,8.68,2.65,14.26,9.63,19.49-.05.07-.1.14-.15.21,3.08,1.41,6.84,2.08,10.13,2.22,3.04.12,6.12-.68,9.14-.38.52-.22,1.04-.46,1.56-.75,4.05,3.04,9.94,2.4,13.41-1.18,1.66-1.71,3.11-3.78,3.14-6.39l.12-11.56-.09-14.78ZM129.52,48.75c7.95-1.6,16.16,1.44,20.35,8.5,1.44,2.44,2.32,5.08,2.15,7.84-.18,2.75-2,4.46-4.78,4.47l-17.26.08c.96,1.35,2.24,2.07,3.68,2.4,5.76,1.32,9.44-.97,12.96-1.03,2.09-.04,3.86,1.19,4.65,2.76,1.68,3.36-.51,6.85-4.51,8.31-8.98,3.28-20.92,2.89-27.62-4.6-4.28-4.79-5.47-11.79-2.96-18.05,2.16-5.39,7.17-9.44,13.35-10.68ZM117.87,12.61c-.65-.57-1.31-1.13-1.98-1.68.67.55,1.33,1.11,1.98,1.68ZM116.58,21.82l3.36-1.79c.88-.47,2.1-1.03,3.09-.41,1.71,1.08,2.57,3.09,2.57,5.11v15.28c0,2.87-2.26,5.28-5.11,4.83l-3.84-2.02c-1.1,1.1-2.44,1.92-4.05,2.14-6.87.92-12.71-4.07-13.36-10.93-.41-4.31.84-8.26,3.95-11.27,3.56-3.44,9.87-4.61,13.39-.95ZM102.29,7.21l-5.82,2.28,5.82-2.28h0ZM96.57,21.46c-.47.47-.88.97-1.23,1.46s-.63.99-.85,1.47c.22-.48.5-.98.85-1.47s.75-.99,1.23-1.46ZM94.34,24.76c-.33.82-.47,1.57-.44,2.14.03.41.14.72.35.9.16.15.39.21.66.16.14-.02.29-.07.45-.15.37-.17.74-.41,1.1-.7.14-.11.29-.24.43-.37s.28-.27.42-.41c.27-.29.54-.6.79-.93.19-.25.37-.5.54-.77-.17.26-.36.52-.54.77-.25.33-.52.64-.79.93-.14.14-.28.28-.42.41s-.28.25-.43.37c-.36.29-.73.52-1.1.7-.17.08-.32.12-.45.15-.28.04-.5-.02-.66-.16-.21-.18-.32-.5-.35-.9-.04-.57.11-1.32.44-2.14ZM99.14,23.85c.67-1.18,1.16-2.44,1.34-3.51l1.42-8.42-1.42,8.42c-.18,1.07-.67,2.33-1.34,3.51-.1.18-.21.36-.32.54.11-.18.22-.36.32-.54ZM106.16,7.19c.12-.27.25-.54.39-.81s.3-.54.46-.8c-.16.26-.31.53-.46.8s-.28.54-.39.81c-.18.41-.33.8-.43,1.18.11-.38.25-.78.43-1.18ZM105.98,10.64c.22.17.54.18.92.07.19-.06.4-.14.61-.25-.21.11-.42.2-.61.25-.38.11-.7.1-.92-.07-.32-.25-.45-.68-.43-1.21-.02.53.11.96.43,1.21ZM103.32,3.49h0c-1.65.71-3.22,1.37-4.77,1.99,1.55-.62,3.13-1.28,4.77-1.99ZM90.75,8.3l-.8,5.48.8-5.48h0ZM89.32,20.38h0s-.21-.12-.21-.12l.21.12ZM87.58,5.85c-.33.83-.76,1.62-1.28,2.35h0c.52-.73.95-1.53,1.28-2.35ZM81.18,11.54c2.69-.08,5.34,2.07,5.35,5.07l.03,18.93,8.29.11c2.21.03,3.48,2.23,3.67,4.09.18,1.81-1.05,4.71-3.4,4.73l-14.11.11c-2.8.02-4.98-2.55-4.98-5.33v-22.35c0-3.09,2.29-5.28,5.15-5.37ZM61.96,42.59l-.64,9.46c-.19,2.77-1.57,5.1-3.58,7.06,1.33,2.68.24,5.38-2.04,7.12-2.64,2.02-5.14,4.11-7.44,6.45-4.78,4.85-5.47,11.52-3.97,18.11.72,3.17.38,6.74-.71,9.83-1.44,4.09-5.22,6.86-9.3,7.78-2.6.59-4.83,0-7.13-1.02-3.55-1.58-7.45.09-8.84-1.28-2.2-2.17-1.92-5.53.41-7.5,1.37.52,2.86.99,4.42.5-2.57-.81-4.97-1.8-6.25-4.11-.88-1.58-.22-3.5,1.01-5.02,1.27.43,2.39,1.08,3.11,1.99l2.26,2.86c-.8-2.32-2.14-3.9-3.43-5.88l6.41-1.94c2.25-.68,4.34-1.65,6.2-3.11,1.76-1.38,2.79-4.14,1.69-6.16-1.5-2.75-5.03-3.18-7.67-1.84-.47.24-1.03,1.11-.97,1.55.08.56.82,1.1,1.37,1.44l1.04.66c.29.18-.2,1.24-.53,1.35-1.67.58-3.12-.92-6.15-.28.55-1.65,1.39-2.89,2.46-4.03l7.88-8.38c1.73-1.84,3.08-3.93,2.99-6.6l-.22-6.68c-.13-4.12-.12-8.37,1.36-12.26,1.02-2.66,3.79-4.17,6.34-5.04-1.4-2.03-1.67-3.98-1.48-6.25.13-1.52-.23-3.38.15-4.87.95-3.74,2.95-6.8,5.45-9.67,6.74-7.72,15.45-13.34,25.8-15.79-2.64,3.58-5.73,6.12-9.27,8.76l-.35,10.13c4.65-.77,9.08,1.38,10.35,5.85,1.99,6.99-4.08,13.88-10.72,16.79ZM105.5,130.54c-4.24,9.87-15.12,11.81-24.99,9.45-4.77-1.14-9.86-4.77-8.65-9.47.45-1.75,1.81-3.85,4.12-4.35,4.4-.97,8.19,3.21,13.55,2.08,2.11-.44,3.83-1.95,3.68-4.37-2.16,1.06-4.43,1.66-6.95,1.61-8.1-.17-14.56-5.9-16.12-13.77-1.25-6.31.19-12.44,4.5-17.32,3.77-4.27,9.68-6.24,15.3-5.14,1.98.39,3.49,1.35,4.89,2.88l5.47-3.08c1.84-1.03,3.68-.75,5.08.81,1.81,2.01,2.33,4.46,2.33,7.21v21.17c0,4.32-.53,8.37-2.21,12.29ZM104.98,84.01c-3.89.07-7.29-2.88-7.31-7.14l-.07-13.77c0-1.79-1.91-3.04-3.38-3.1-1.58-.06-3.47,1.27-3.49,3.15l-.14,14.45c-.04,3.68-3.21,6.16-6.57,6.41-3.39.25-7.29-2.09-7.35-5.84l-.21-13.65.02-8.72c0-4.16,2.93-7.76,7.22-7.35l5.27,3.24c5.04-3.92,11.7-4.61,17.06-1.48,3.81,2.22,6.01,5.9,6.01,10.27v16.19c0,4.14-3.08,7.24-7.05,7.32ZM133.41,101.69l-5.77,2.5c-1.8.78-3.06,2.47-3.09,4.49l-.15,9.29c-.06,3.92-2.95,6.91-6.7,7.21-3.39.28-7.48-2.18-7.5-6.08l-.14-22.62c-.03-4.13,3.08-7.54,7.33-7.4l6.36,4.29,3.15-2.97c2.1-1.52,4.66-1.61,6.91-.53,2.37,1.14,3.66,3.37,3.69,5.89.03,2.48-1.5,4.81-4.08,5.92ZM175.4,118.25c0,4.01-3.17,7.29-7.24,6.99l-5.67-3.12c-3.19,3.88-9.77,3.96-14.26,2.14-5.83-2.36-9.59-7.44-10.59-13.58-1.13-6.91,1.11-13.67,6.5-18.21,4.92-4.15,13.49-5.53,18.29-.53l5.9-3.14c1.38-.74,2.95-.63,4.14.48,1.81,1.68,2.93,4.02,2.92,6.63v22.33Z"/>
        <path d="M112.51,36.53c1.85-.02,3.41-1.6,3.44-3.81.02-1.44-.49-2.66-1.35-3.38-.8-.68-2.13-1.03-3.18-.64-1.74.65-2.35,2.44-2.32,4.18.03,2.03,1.5,3.68,3.41,3.66Z"/>
      </g>
    </g>
  </g>
</svg>