<?xml version="1.0" encoding="UTF-8"?>
<svg id="Capa_2" data-name="Capa 2" xmlns="http://www.w3.org/2000/svg" viewBox="0 0 113.19 101.1">
  <g id="Layer_1" data-name="Layer 1">
    <g>
      <g>
        <path d="M0,44.93c.08-.38.16-.76.24-1.14.23-1.08.65-2.07,1.37-2.92.53-.62,1.18-1.08,1.99-1.27.15-.04.31-.04.55-.08-.11.14-.16.2-.21.26-1.05,1.2-1.59,2.61-1.63,4.2-.03,1.19.25,2.31.77,3.38.4.81.88,1.56,1.5,2.22,1.2,1.26,2.69,1.67,4.38,1.44.84-.12,1.63-.41,2.37-.83.08-.05.16-.1.24-.15.02,0,.03-.05.05-.09-.76.09-1.51.12-2.27.05-.9-.09-1.77-.28-2.58-.7-.62-.32-1.13-.75-1.47-1.37-.24-.44-.48-.88-.67-1.35-.4-.99-.46-2.01-.17-3.03.46-1.62,1.29-3.02,2.68-4.03,1.53-1.11,3.22-1.3,4.99-.7,1.13.38,1.86,1.38,1.9,2.5.04,1.25-.99,2.52-2.21,2.69-.45.06-.9,0-1.31-.22-.48-.24-.65-.63-.55-1.21.08.06.15.12.23.17.37.27.8.21,1.09-.14.2-.24.2-.46,0-.69-.22-.24-.5-.4-.82-.41-.32,0-.66,0-.96.09-.76.21-1.13.85-1,1.63.16.92.84,1.57,1.78,1.7.95.14,1.87-.02,2.78-.28,1.67-.47,3.19-1.23,4.44-2.46.96-.96,1.91-1.93,2.86-2.91.09-.09.16-.22.2-.34.27-.98.53-1.96.79-2.95.01-.05,0-.1,0-.17-.3.03-.58.06-.86.07-1.92.1-3.59-.49-4.94-1.87-1.08-1.1-1.37-2.41-.79-3.86.35-.88,1.01-1.46,1.92-1.76.07-.02.15-.03.3-.06-.09.15-.14.25-.2.34-.45.7-.52,1.44-.25,2.22,0,.03.02.05.03.08.41,1.12,1.11,1.88,2.38,1.98.46.04.91.15,1.38.09.77-.1,1.39-.45,1.9-1.01.41-.46.71-.99.95-1.56.01-.03,0-.08,0-.15-.14.09-.26.18-.38.26-.79.54-1.63.98-2.59,1.14-.37.06-.76.08-1.13.05-.73-.06-1.42-.77-1.52-1.5-.08-.64.29-1.06,1.05-1.15-.05.11-.1.2-.14.29-.17.4-.08.72.29.94.43.25.88.31,1.31.03.33-.22.66-.45.91-.75.56-.68,1.12-1.37,1.6-2.1.58-.88,1.14-1.79,1.63-2.73.79-1.53,1.93-2.75,3.28-3.78,1.69-1.29,3.55-2.31,5.49-3.18.99-.44,2-.83,3.01-1.25.13-.05.25-.1.4-.16.02-.21.05-.43.06-.64.16-3.07.99-5.96,2.28-8.73.99-2.12,2.25-4.06,3.91-5.72.5-.5,1.04-.95,1.62-1.35,2.06,4.18,2.92,10.32-1.82,16.39.15-.02.26-.02.37-.05,1.95-.44,3.93-.7,5.93-.72.15,0,.3.02.45.02,0,.13,0,.27-.03.4-.23,1.62-.46,3.24-.69,4.87-.02.11,0,.23,0,.35.03.01.06.03.09.04.05-.06.13-.11.14-.17.05-.29.09-.59.13-.88.2-1.42.4-2.84.6-4.26,0-.1,0-.21,0-.33-.1,0-.18,0-.26.01.17-1.17.34-2.34.51-3.5.14-.97.28-1.93.42-2.9.03-.22.13-.28.35-.17-.09,1.32.3,2.56.69,3.81.28.92.52,1.85.79,2.82,1.44.15,2.93.37,4.39.74,1.45.36,2.87.81,4.33,1.43-2.45,1.12-4.87,2.07-7.39,2.84-.08.47-.15.94-.22,1.4-.23,1.5-.47,3-.68,4.51-.08.57-.06,1.16-.09,1.74h.09c.09-.53.18-1.05.26-1.58.2-1.25.39-2.49.58-3.74.02-.16.08-.27.25-.33,2.16-.73,4.27-1.58,6.36-2.51.03-.02.08-.01.18-.02-.38,2.45-.81,4.87-1.23,7.34-.46-.2-.86-.07-1.21.18-1.22.86-2.07,1.98-2.43,3.45-.05.19-.06.41-.04.61.03.38.3.6.67.52.25-.05.5-.16.7-.3.56-.39,1.06-.84,1.36-1.48.13-.28.29-.56.49-.8.39-.47.56-1.01.66-1.59.49-2.93,1-5.86,1.49-8.79.07-.39.12-.78.18-1.17,0-.08.04-.15.08-.28.77.36,1.52.71,2.27,1.06.2-.23.39-.46.61-.66.29-.26.59-.52.91-.74.36-.24.76-.37,1.21-.15.15-.85.29-1.68.44-2.51.39-2.26.78-4.52,1.18-6.78.16-.9.31-1.79.48-2.69.03-.18,0-.44.37-.41-.06.35-.11.71-.17,1.06-.46,2.61-.91,5.21-1.37,7.82-.25,1.43-.5,2.86-.74,4.29-.1.56-.31,1.07-.59,1.55-.08.13-.15.26-.23.38.97.72,1.94,1.4,2.86,2.15.92.76,1.79,1.59,2.68,2.39.24,0,.51-.01.78,0,.23.02.37-.08.5-.26.45-.62.99-1.15,1.64-1.56.42-.27.86-.47,1.41-.33.11-.57.22-1.13.33-1.69.44-2.36.88-4.72,1.32-7.08.04-.23.15-.34.37-.42,2.31-.83,4.65-1.57,7.07-2.03.16-.03.32-.05.54-.08-.04.27-.06.5-.1.74-.43,2.54-.86,5.08-1.3,7.62-.05.29-.14.59-.3.83-.71,1.05-1.69,1.74-2.93,2.06-.09.02-.19.04-.28.04-.53,0-.79-.26-.72-.79.04-.25.12-.51.25-.72.51-.9,1.25-1.57,2.19-1.99.47-.21.95-.32,1.51-.05.34-1.96.66-3.89,1-5.87-.19.03-.33.05-.47.08-2.17.5-4.3,1.14-6.39,1.91-.22.08-.34.18-.39.44-.47,2.53-.96,5.06-1.44,7.6-.11.58-.36,1.08-.71,1.53-.16.21-.34.42-.54.65.26.27.52.54.79.8,1.07,1.07,1.5,2.4,1.52,3.88.01.96,0,1.93,0,2.89,0,.28.04.53.15.79.93,2.2,1.56,4.48,1.94,6.84.06.4.11.8.17,1.25h.75c2.14.06,4.17.53,6.05,1.57,1.46.82,2.69,1.93,3.76,3.21.91,1.08,1.67,2.24,2.13,3.59.65,1.91.77,3.85.29,5.81-.13.53-.37.99-.69,1.41.03.06.05.12.08.16.52.72.67,1.56.73,2.42.02.35,0,.71,0,1.06.02,1.39-.5,2.56-1.46,3.56-.27.28-.52.58-.78.88h.23c.81.01,1.63-.03,2.44.05,1.25.13,2.46.44,3.54,1.17.61-.33,1.23-.65,1.83-.98.57-.31,1.19-.46,1.83-.47.66-.01,1.32-.04,1.99.12.59.14,1.1.4,1.53.8.44.41.85.85,1.23,1.3,1.08,1.29,1.46,2.83,1.47,4.47.02,4.57,0,9.13,0,13.7,0,.8-.16,1.57-.38,2.32-.21.7-.63,1.29-1.11,1.83-.29.33-.6.63-.93.91-1.08.95-2.38,1.32-3.79,1.34-.5,0-1-.03-1.5-.08-.21-.02-.41-.13-.6-.23-.5-.27-1-.55-1.51-.84-.93.65-1.99.91-3.08,1.11-.28.05-.57.1-.85.1-.94,0-1.88.02-2.81-.07-2.67-.24-4.96-1.32-6.87-3.2-.89-.87-1.71-1.79-2.33-2.87-.91-1.56-1.36-3.28-1.57-5.06-.08-.62-.08-1.25-.11-1.87,0-.09-.02-.18-.03-.31-.11.03-.21.04-.29.08-.51.22-1.02.45-1.53.67-.33.14-.47.39-.49.73-.04.6-.08,1.19-.09,1.79-.01,1.09-.02,2.17,0,3.26.03,2.05-.74,3.74-2.26,5.12-.95.86-2.03,1.43-3.29,1.56-1.28.13-2.58.14-3.83-.3-.34-.12-.67-.29-1.03-.45-.06.22-.12.43-.18.65-.92,3.39-2.93,5.96-5.95,7.74-1.11.66-2.34,1.01-3.59,1.26-.58.12-1.18.18-1.77.27-.06,0-.12.04-.19.07h-3.75c-.1-.02-.21-.06-.31-.07-.95-.06-1.88-.23-2.81-.43-1.23-.27-2.4-.69-3.46-1.38-1.29-.84-2.41-1.85-3.17-3.22-.03-.06-.08-.11-.11-.17-.11-.16-.25-.32-.33-.5-.87-1.96-1.73-3.92-2.61-5.88-.3-.67-.68-1.3-1.02-1.95-.27-.51-.71-.73-1.26-.76-.28-.02-.58-.02-.85.03-.64.12-1.28.23-1.9.43-1.71.54-3.4,1.12-5.09,1.7-2.08.71-4.2.99-6.37.52-1.64-.36-3.1-1.06-4.3-2.25-.41-.4-.69-.87-.86-1.41-.24-.73-.35-1.48-.41-2.24-.07-.96-.07-1.92.07-2.88.1-.69-.16-1.04-.82-1.24-.15-.05-.32-.09-.48-.09-.39,0-.79.01-1.18.06-1.31.15-2.5-.36-3.07-1.69-.12-.29-.23-.58-.29-.89-.25-1.24.01-2.34.92-3.26.06-.06.11-.14.2-.24-.22-.21-.45-.39-.63-.6-.55-.65-.82-1.41-.72-2.26.17-1.49.92-2.56,2.36-3.08.67-.24,1.37-.43,2.05-.65.2-.06.4-.13.65-.22-.14-.1-.2-.16-.28-.2-.6-.32-1.07-.78-1.47-1.33-.62-.85-.73-1.78-.26-2.72.25-.51.55-1.01.92-1.43.9-1.04,1.84-2.03,2.77-3.04.07-.07.12-.15.23-.29-.16.03-.24.05-.31.06-.62.07-1.24.17-1.86.19-.71,0-1.41-.13-2.04-.48-.47-.27-.86-.62-1.01-1.17-.23-.82.42-1.65,1.32-1.64-.01.07-.03.13-.04.19-.01.26-.06.52-.03.77.1.69.75,1.12,1.52,1.02.78-.1,1.49-.41,2.13-.86.42-.3.72-.7.85-1.21.12-.46.08-.89-.22-1.27-.2-.26-.27-.26-.59-.18-1.06.28-2.12.59-3.19.81-1.88.39-3.78.59-5.7.38-1.78-.2-3.27-.95-4.4-2.35-1.06-1.31-1.66-2.82-1.98-4.45-.15-.42-.24-.81-.32-1.21v-1.14ZM42.23,16.55c-.16.03-.26.04-.34.06-6.13,1.64-11.22,4.91-15.28,9.79-1.2,1.45-2.1,3.06-2.67,4.86-.08.25-.12.53-.12.8-.01,1.1.02,2.2-.02,3.3-.02.63.12,1.21.41,1.76.16.31.33.62.49.94-.26.08-.51.14-.75.24-1.02.39-1.82,1.06-2.53,1.87-.3.35-.51.72-.63,1.17-.63,2.32-.81,4.67-.62,7.06.09,1.11.13,2.22.13,3.34,0,1.55-.47,2.94-1.6,4.05-.48.48-.94.98-1.4,1.48-1.22,1.31-2.45,2.62-3.66,3.94-.39.42-.71.9-.94,1.42-.08.19-.19.39-.12.63.69-.27,1.36-.21,2.04,0,.18.06.36.12.55.15.34.06.68.08.98-.15.38-.29.35-.68-.07-.91-.11-.06-.23-.09-.33-.15-.15-.08-.32-.16-.45-.27-.43-.36-.46-.89-.06-1.28.17-.17.39-.3.61-.39.54-.24,1.13-.27,1.72-.27.79,0,1.44.34,2.02.84.5.43.75,1,.74,1.66-.02,1.21-.53,2.17-1.51,2.87-.67.48-1.39.85-2.14,1.16-1.24.51-2.55.84-3.83,1.22-.38.11-.76.24-1.14.36.48.7.95,1.35,1.37,2.02.43.69.77,1.42,1.04,2.18-.11-.11-.18-.23-.26-.35-.49-.7-.98-1.4-1.49-2.08-.44-.59-1.07-.9-1.77-1.16-.62.66-.91,1.43-.81,2.33.07.58.41,1.02.83,1.41.77.7,1.65,1.18,2.67,1.42.15.04.3.09.45.13,0,.03-.01.06-.02.09-.93.25-1.82.02-2.7-.32-.24.28-.5.53-.69.82-.63.95-.48,2.5.3,3.34.22.23.48.41.79.48.29.06.6.12.88.07.69-.11,1.38-.07,2.07,0,.71.06,1.38.22,2.03.54,1.08.53,2.23.67,3.41.5,1.63-.24,3-1,4.16-2.14,1.03-1.02,1.74-2.22,1.97-3.67.06-.35.11-.7.16-1.05.16-1.25.19-2.49-.11-3.72-.14-.57-.26-1.14-.34-1.72-.21-1.63.03-3.23.39-4.81.29-1.3,1.01-2.39,1.86-3.4.95-1.14,2.08-2.1,3.24-3.03.69-.55,1.37-1.11,2.05-1.68.59-.49.89-1.16,1.01-1.9.09-.61.13-1.23-.38-1.69,0-.03,0-.05.02-.06.09-.1.19-.2.28-.3,1-1.08,1.74-2.31,1.87-3.8.16-1.73.25-3.47.34-5.2.02-.37.14-.54.47-.7,1.55-.74,2.91-1.74,4.04-3.04,1.22-1.41,1.98-3.01,2.05-4.89.09-2.16-1.11-4.03-3.09-4.8-.88-.34-1.79-.42-2.72-.34-.14.01-.29.02-.46.03v-.28c.06-1.75.12-3.5.16-5.25,0-.3.11-.49.36-.67,1.78-1.32,3.44-2.79,4.86-4.5.08-.1.16-.21.29-.37h-.06ZM54.67,88.54c.02.06.04.1.04.14,0,1.1-.57,1.92-1.61,2.31-.85.32-1.72.35-2.6.22-1.03-.15-1.99-.53-2.95-.9-.47-.18-.95-.33-1.44-.41-1.26-.19-2.38.07-3.21,1.13-.37.48-.63,1.01-.76,1.6-.1.44-.1.89,0,1.33.19.84.67,1.51,1.3,2.07.87.78,1.87,1.35,2.98,1.72,1.26.43,2.56.62,3.87.71,1.67.11,3.34.05,4.97-.39,2.72-.73,4.82-2.26,6.18-4.75.66-1.2,1.07-2.49,1.35-3.82.28-1.36.38-2.74.38-4.13v-12.84c0-.47-.05-.95-.14-1.42-.2-1.07-.73-1.98-1.52-2.74-.7-.68-1.67-.76-2.51-.28-1.08.62-2.18,1.22-3.27,1.83-.04.02-.1.03-.12.03-.12-.13-.2-.25-.31-.35-.49-.46-1.05-.82-1.67-1.06-1.34-.53-2.72-.55-4.13-.32-2.41.39-4.41,1.5-5.95,3.39-2.4,2.94-3.1,6.34-2.32,10,.99,4.69,4.84,7.57,8.86,7.85,1.51.1,2.92-.12,4.26-.79.11-.05.22-.09.34-.15l-.02.02ZM95.29,69.89c-.84-.84-1.8-1.4-2.92-1.69-.95-.24-1.9-.25-2.87-.13-2.78.37-4.99,1.69-6.65,3.93-1.95,2.63-2.61,5.6-2.08,8.82.4,2.49,1.49,4.61,3.42,6.27,2.33,2,5.04,2.71,8.05,2.19,1.22-.21,2.26-.8,3.08-1.77.11.06.21.11.32.17.91.51,1.83,1.02,2.73,1.54.21.12.42.17.66.16,1.56-.05,3.01-1.11,3.55-2.57.22-.58.28-1.19.28-1.8v-12.56c0-1.57-.47-2.93-1.6-4.05-.73-.71-1.63-.84-2.53-.36-1.13.61-2.27,1.22-3.43,1.84h-.01ZM76.11,56.72h9.24c.58,0,1.17-.03,1.74-.13,1.09-.19,1.75-.86,1.96-1.96.16-.83.16-1.65-.06-2.46-.8-2.95-2.59-5.15-5.27-6.57-2.6-1.39-5.39-1.6-8.23-.91-2.18.53-4.08,1.58-5.55,3.29-1.98,2.3-2.83,4.97-2.44,8,.35,2.73,1.59,4.97,3.77,6.65,2.17,1.68,4.69,2.4,7.39,2.54,1.95.1,3.88-.14,5.77-.59.93-.22,1.81-.56,2.65-1.03.74-.42,1.33-.99,1.68-1.77.66-1.47.03-3.2-1.41-3.86-.59-.27-1.22-.39-1.87-.29-.66.1-1.31.23-1.95.4-1.67.46-3.34.55-5.04.21-.94-.19-1.72-.64-2.38-1.51h0ZM52.17,46.29c-.96-.6-1.92-1.19-2.86-1.8-.23-.15-.46-.2-.73-.17-2.12.19-3.68,1.88-3.68,4.01,0,4.27-.02,8.53,0,12.8,0,3.16,3.32,4.99,6.04,3.59,1.44-.74,2.2-1.99,2.22-3.63.02-2.59,0-5.19,0-7.79,0-.56.18-1.04.52-1.47.73-.91,2.07-.99,2.92-.18.49.47.73,1.01.73,1.7-.02,2.54,0,5.08,0,7.62-.03,2.82,2.68,4.87,5.46,4.01,1.75-.54,2.9-2.14,2.9-4v-9.66c0-1.9-.7-3.54-2.08-4.84-1.91-1.8-4.23-2.43-6.8-2.16-1.51.16-2.87.78-4.14,1.6-.16.1-.3.23-.48.37h-.01ZM72.62,70.75c-1.14-.78-2.29-1.53-3.41-2.32-.33-.23-.65-.29-1.03-.22-2.13.36-3.6,2.08-3.6,4.24v12.72c0,.24.03.49.06.73.22,1.91,2.3,3.95,5.02,3.34,1.96-.44,3.31-2.19,3.31-4.21v-2.85c.01-.84.03-1.68.08-2.52.07-1.16.62-2.05,1.67-2.56.68-.33,1.38-.63,2.09-.91.79-.31,1.57-.61,2.26-1.11,1.3-.94,1.8-2.3,1.44-3.87-.53-2.3-3.05-3.39-4.91-2.79-1.28.41-2.14,1.33-2.99,2.35v-.02ZM68.41,28.74c-.08-.06-.13-.11-.18-.15-.89-.81-1.94-1.19-3.13-1.16-1.78.05-3.35.66-4.62,1.93-1.76,1.77-2.5,3.94-2.26,6.42.19,1.99.99,3.68,2.54,4.98,1.44,1.21,3.11,1.68,4.96,1.54,1.05-.08,1.97-.49,2.69-1.31.13.07.25.13.37.19.56.31,1.12.61,1.67.93.2.11.4.16.62.14.98-.09,1.71-.56,2.21-1.41.32-.55.37-1.15.37-1.77v-8.19c0-.24,0-.49-.02-.73-.03-.89-.38-1.64-.96-2.32-.52-.6-1.28-.75-2.01-.32-.72.43-1.48.8-2.25,1.21v.02ZM50.75,36.79v-9.28c0-.6,0-1.2,0-1.79-.03-1.46-1.12-2.73-2.5-2.95-1.55-.25-2.96.56-3.44,2.02-.13.4-.18.85-.18,1.28,0,4.16,0,8.31,0,12.47,0,.3.02.6.06.89.21,1.52,1.5,2.66,3.03,2.66h7.58c.43,0,.83-.11,1.2-.33,1.04-.61,1.53-1.84,1.2-3.03-.33-1.21-1.29-1.94-2.54-1.94h-4.41ZM37.24,16.16c.32-.11.61-.2.91-.31.07-.03.15-.07.21-.12,1.69-1.38,3.28-2.85,4.59-4.6.79-1.05,1.43-2.17,1.77-3.45.28-1.07.25-2.11-.25-3.13-.18-.37-.44-.49-.81-.44-.09.01-.19.03-.28.05-.49.12-.89.4-1.25.73-.56.52-1.04,1.11-1.46,1.74-1.58,2.41-2.62,5.05-3.24,7.85-.12.54-.21,1.09-.19,1.68ZM62.97,19.01c-.46.64-.82,1.25-.97,1.97-.04.21-.06.43-.05.64.02.43.29.63.71.55.11-.02.21-.05.31-.1.84-.43,1.44-1.12,1.99-1.91-.68-.39-1.32-.76-1.99-1.15ZM51.28,15.64c-.24-.89-.72-1.58-1.52-2.12-.1.74-.19,1.41-.29,2.12h1.81ZM51.37,15.74c.16,1.76-.22,3.39-.87,5.06.98-.76,1.52-3.86,1.25-5.04-.11,0-.23-.01-.38-.02Z"/>
        <path d="M112.86,28.9c-.06-1.05-.12-2.1-.19-3.18-.77-.09-1.54-.15-2.3-.26-.76-.12-1.52-.29-2.32-.44,0,.15-.02.29-.02.43-.03,1.44-.06,2.88-.08,4.32,0,.29-.1.53-.32.72-.44.38-1.22.46-1.72.17-.62-.35-.68-1.09-.1-1.5.47-.33.98-.37,1.51-.13.11.05.21.11.36.18.05-1.84.09-3.63.14-5.48,1.67.51,3.32.85,5.04.93.02.09.05.17.05.24.09,1.45.16,2.9.28,4.35.04.52-.17.86-.59,1.11s-.87.38-1.36.33c-.13-.01-.27-.04-.39-.09-.47-.2-.59-.66-.28-1.07.3-.39.71-.59,1.19-.64.34-.03.7.01,1.1.02h0Z"/>
        <path d="M74.3,3.46c-.07.43-.14.83-.21,1.23-.54,2.93-1.08,5.87-1.61,8.8-.16.87-.31,1.74-.49,2.6-.07.33-.19.65-.35.95-.47.89-1.12,1.63-1.91,2.25-.29.23-.6.42-.97.49-.44.09-.75-.13-.73-.57.02-.36.09-.73.23-1.06.45-1.09,1.17-1.98,2.13-2.67.13-.09.28-.17.42-.24.32-.16.64-.21,1.03-.04.06-.26.11-.51.16-.75.65-3.55,1.3-7.1,1.95-10.64.03-.18.04-.37.36-.33v-.02Z"/>
        <path d="M104.69,22.85c.16-2.49.32-4.96.48-7.43.17,0,.21.09.22.2.09,1.21.55,2.32.91,3.45.24.77.47,1.54.35,2.36-.06.38-.21.75-.33,1.12-.03.08-.1.14-.2.2.24-.81.36-1.62.21-2.46-.15-.83-.54-1.54-1.12-2.17-.03.47-.07.94-.1,1.4-.09,1.38-.17,2.76-.25,4.15-.03.47-.23.81-.66.99-.44.18-.85.12-1.22-.18-.43-.34-.61-.94-.44-1.47.21-.66.93-.97,1.54-.64.21.11.38.29.62.47h-.01Z"/>
        <path d="M36.06,22.09c-.08,1.92-.15,3.77-.22,5.63-.12.04-.21.07-.3.09-2.21.6-3.97,1.85-5.24,3.76-.53.8-.86,1.69-.98,2.65-.26,2.1,1.14,3.37,2.76,3.71.02,0,.05,0,.11-.02-.04-.06-.06-.12-.1-.15-1.76-1.58-1.22-3.78-.24-4.99.84-1.03,1.94-1.63,3.22-1.94.14-.03.29-.06.44-.08.07-.01.13,0,.24-.02,0,.14.02.27.02.4-.07,2.96-.15,5.92-.21,8.88,0,.28-.09.43-.36.54-1.55.65-3.15.77-4.79.45-.18-.04-.3-.13-.41-.29-.19-.31-.41-.61-.67-.86-.79-.76-1.69-1.37-2.76-1.67-.16-.05-.26-.13-.33-.27-.52-1.06-.75-2.18-.62-3.35.18-1.63.83-3.08,1.71-4.44.96-1.49,2.16-2.79,3.46-3.99,1.54-1.42,3.22-2.67,4.95-3.84.07-.05.16-.09.31-.18v-.02Z"/>
        <path d="M30.35,41.65c1.78.27,3.51.25,5.19-.47.02.07.05.12.04.17-.11,1.75-.23,3.5-.35,5.24-.06.89-.37,1.7-.88,2.42-1.32,1.87-3.12,3-5.39,3.32-.73.1-1.46.04-2.16-.23.05-.19.1-.37.16-.57.18-.07.38-.13.58-.22,1.28-.54,2.28-1.36,2.74-2.72.27-.78.28-1.57,0-2.36-.05-.15-.13-.3-.21-.44-.33-.56-.86-.93-1.34-1.34-.28-.24-.68-.28-1.05-.28-1.53,0-2.91.45-4.12,1.4-.16.12-.3.28-.41.45-.18.27-.09.52.22.6.22.06.45.05.68.05.16,0,.31-.04.46-.06.11.17,0,.28-.06.4-.37.85-.65,1.73-.8,2.64-.17,1.02-.17,2.03.06,3.04.1.42.22.51.65.46.55-.06,1.05-.26,1.53-.53.22-.12.44-.17.7-.17h4.12c-.04.08-.06.13-.09.16-1.36,1.18-2.85,2.17-4.54,2.82-.23.09-.47.13-.7.21-.28.1-.53.04-.77-.11-.17-.11-.34-.22-.52-.32-.27-.15-.41-.13-.61.1-.2.22-.37.47-.56.7-.04.05-.08.1-.19.21.02-.17.03-.26.05-.34.32-1.32.46-2.65.32-4-.04-.42-.19-.79-.44-1.12-.25-.34-.53-.66-.78-.99-.22-.29-.44-.59-.62-.9-.49-.84-.45-1.68.05-2.51.46-.75,1.1-1.3,1.87-1.71.94-.49,1.95-.73,3-.84.93-.1,1.87-.12,2.81,0,.63.07.9-.18,1.14-.69.16-.34.2-.7.19-1.07v-.37l.03-.03Z"/>
        <path d="M36.48,30.61c1.36-.22,2.41.16,3.14,1.27.34.51.51,1.08.57,1.68.12,1.13-.17,2.18-.7,3.17-.73,1.37-1.83,2.37-3.19,3.26.06-3.17.12-6.27.18-9.38Z"/>
        <path d="M55.15,78.72c0,1.18-.4,2.07-1.28,2.69-1.71,1.2-4,.27-4.45-1.79-.13-.58-.12-1.16,0-1.74.31-1.49,1.81-2.47,3-2.39,1.12.08,1.86.68,2.36,1.63.28.52.42,1.09.37,1.59h0Z"/>
        <path d="M94.71,78.96c.03.7-.19,1.33-.54,1.93-.94,1.59-3.33,1.95-4.58.12-.99-1.46-.64-3.76.49-4.8.72-.67,1.55-.86,2.48-.56,1.61.51,2.07,1.86,2.15,2.91v.41h0Z"/>
        <path d="M80.54,52.64h-4.36c.01-.1.01-.2.04-.28.11-.26.2-.54.34-.78.83-1.38,2.27-1.34,3.36-.53.45.33.67.97.62,1.58h0Z"/>
        <path d="M67.98,35.18c.03.39-.14.86-.44,1.3-.76,1.12-2.31,1.12-3.09.02-.74-1.04-.44-2.51.19-3.22.92-1.03,2.22-.58,2.79.09.41.47.57,1.04.55,1.81Z"/>
      </g>
      <path d="M93.31,16.51c.36-3.14.72-6.21,1.07-9.3.21.01.27.1.28.26.01,1.09.36,2.11.69,3.12.28.86.57,1.73.66,2.64.09.95-.1,1.84-.56,2.66-.06.1-.14.18-.22.29-.14-.16-.02-.25.02-.35.43-1.05.56-2.13.31-3.23-.19-.82-.63-1.51-1.25-2.2-.05.33-.09.58-.12.83-.23,2.01-.46,4.02-.68,6.03-.13,1.2-1.22,1.94-2.33,1.59-.76-.24-1.13-.94-.89-1.71.26-.83,1.26-1.42,2.1-1.21.23.06.43.21.64.33.09.05.15.14.28.25Z"/>
      <path d="M90.27,11.98c.38-3.09.76-6.1,1.13-9.11.23-.03.29.06.27.25-.08.67-.14,1.35-.22,2.02-.15,1.24-.3,2.48-.46,3.72-.17,1.35-.33,2.69-.5,4.04-.04.3-.16.58-.36.81-.66.75-1.49,1.13-2.48,1.07-.86-.05-1.31-.66-1.06-1.48.29-.99,1.02-1.54,1.99-1.79.6-.16,1.15-.03,1.7.47h0Z"/>
      <path d="M97.19,18.41c.32-2.97.63-5.87.94-8.77l.1-.03c.05.08.14.16.14.23,0,1.42.54,2.73.89,4.08.21.82.37,1.64.29,2.49-.05.52-.19,1.01-.43,1.48-.06.12-.16.24-.3.32.12-.46.28-.92.35-1.39.07-.48.07-.97.06-1.46,0-.48-.18-.93-.37-1.37-.2-.44-.43-.87-.8-1.3-.05.37-.09.67-.12.98-.2,1.86-.4,3.72-.59,5.59-.08.76-.57,1.26-1.31,1.31-.75.05-1.35-.38-1.51-1.08-.16-.67.24-1.43.89-1.69.54-.22,1.09-.11,1.5.31.07.08.14.16.27.29h0Z"/>
      <path d="M101.03,24.92c.12-1.35.22-2.68.35-4,.13-1.31.21-2.63.37-3.96.22.07.18.21.17.32-.03.42-.06.84-.1,1.26-.15,1.7-.3,3.4-.46,5.1-.06.69-.11,1.38-.17,2.07-.05.56-.39.94-.92,1.04-.64.12-1.24-.15-1.52-.69-.23-.45-.13-1.04.23-1.39.4-.39,1.02-.47,1.5-.18.18.11.34.26.54.42h0Z"/>
    </g>
  </g>
</svg>